<svg xmlns="http://www.w3.org/2000/svg" xmlns:xlink="http://www.w3.org/1999/xlink" width="500" zoomAndPan="magnify" viewBox="0 0 375 374.999991" height="500" preserveAspectRatio="xMidYMid meet" version="1.0"><defs><g/><clipPath id="cee2455c12"><path d="M 271.363281 222.457031 L 329.421875 222.457031 L 329.421875 280.519531 L 271.363281 280.519531 Z M 271.363281 222.457031 " clip-rule="nonzero"/></clipPath><clipPath id="97f9387add"><path d="M 300.394531 222.457031 C 284.359375 222.457031 271.363281 235.453125 271.363281 251.488281 C 271.363281 267.519531 284.359375 280.519531 300.394531 280.519531 C 316.425781 280.519531 329.421875 267.519531 329.421875 251.488281 C 329.421875 235.453125 316.425781 222.457031 300.394531 222.457031 Z M 300.394531 222.457031 " clip-rule="nonzero"/></clipPath><clipPath id="e6197c761c"><path d="M 37.398438 32.949219 L 141.179688 32.949219 L 141.179688 136.730469 L 37.398438 136.730469 Z M 37.398438 32.949219 " clip-rule="nonzero"/></clipPath><clipPath id="e73b4a811b"><path d="M 89.289062 32.949219 C 60.632812 32.949219 37.398438 56.183594 37.398438 84.839844 C 37.398438 113.5 60.632812 136.730469 89.289062 136.730469 C 117.949219 136.730469 141.179688 113.5 141.179688 84.839844 C 141.179688 56.183594 117.949219 32.949219 89.289062 32.949219 Z M 89.289062 32.949219 " clip-rule="nonzero"/></clipPath><clipPath id="ce3e2ec564"><path d="M 288.132812 239.226562 L 312.65625 239.226562 L 312.65625 263.75 L 288.132812 263.75 Z M 288.132812 239.226562 " clip-rule="nonzero"/></clipPath><clipPath id="444d44ff83"><path d="M 300.394531 239.226562 C 293.621094 239.226562 288.132812 244.714844 288.132812 251.488281 C 288.132812 258.261719 293.621094 263.75 300.394531 263.75 C 307.164062 263.75 312.65625 258.261719 312.65625 251.488281 C 312.65625 244.714844 307.164062 239.226562 300.394531 239.226562 Z M 300.394531 239.226562 " clip-rule="nonzero"/></clipPath></defs><g fill="#ffffff" fill-opacity="1"><g transform="translate(44.980186, 252.138723)"><g><path d="M 64.34375 0 L -5.671875 -166.953125 L 37.234375 -166.953125 L 79.328125 -57.265625 L 121.421875 -166.953125 L 164.3125 -166.953125 L 94.296875 0 Z M 64.34375 0 "/></g></g></g><g fill="#ffffff" fill-opacity="1"><g transform="translate(169.114668, 252.138723)"><g><path d="M 164.109375 0 L 111.703125 0 L 50.1875 -70.828125 L 50.1875 0 L 12.140625 0 L 12.140625 -166.953125 L 50.1875 -166.953125 L 50.1875 -98.75 L 107.453125 -166.953125 L 153.59375 -166.953125 L 86.40625 -87.828125 Z M 164.109375 0 "/></g></g></g><g clip-path="url(#cee2455c12)"><g clip-path="url(#97f9387add)"><path fill="#27391c" d="M 271.363281 222.457031 L 329.421875 222.457031 L 329.421875 280.519531 L 271.363281 280.519531 Z M 271.363281 222.457031 " fill-opacity="1" fill-rule="nonzero"/></g></g><g clip-path="url(#e6197c761c)"><g clip-path="url(#e73b4a811b)"><path fill="#27391c" d="M 37.398438 32.949219 L 141.179688 32.949219 L 141.179688 136.730469 L 37.398438 136.730469 Z M 37.398438 32.949219 " fill-opacity="1" fill-rule="nonzero"/></g></g><g clip-path="url(#ce3e2ec564)"><g clip-path="url(#444d44ff83)"><path fill="#ffffff" d="M 288.132812 239.226562 L 312.65625 239.226562 L 312.65625 263.75 L 288.132812 263.75 Z M 288.132812 239.226562 " fill-opacity="1" fill-rule="nonzero"/></g></g><g fill="#ffffff" fill-opacity="1"><g transform="translate(97.816084, 291.463821)"><g><path d="M 14.71875 -16.828125 L 18.625 -16.828125 L 11.53125 0 L 7.578125 0 L 0.5 -16.828125 L 4.421875 -16.828125 L 9.5625 -4.25 Z M 14.71875 -16.828125 "/></g></g></g><g fill="#ffffff" fill-opacity="1"><g transform="translate(120.191881, 291.463821)"><g><path d="M 1.140625 -16.828125 L 11.65625 -16.828125 L 11.65625 -13.546875 L 4.75 -13.546875 L 4.75 -10.515625 L 10.828125 -10.515625 L 10.828125 -7.234375 L 4.75 -7.234375 L 4.75 -3.25 L 11.65625 -3.25 L 11.65625 0 L 1.140625 0 Z M 1.140625 -16.828125 "/></g></g></g><g fill="#ffffff" fill-opacity="1"><g transform="translate(136.232443, 291.463821)"><g><path d="M 1.140625 -16.828125 L 11.65625 -16.828125 L 11.65625 -13.546875 L 4.75 -13.546875 L 4.75 -10.515625 L 10.828125 -10.515625 L 10.828125 -7.234375 L 4.75 -7.234375 L 4.75 -3.25 L 11.65625 -3.25 L 11.65625 0 L 1.140625 0 Z M 1.140625 -16.828125 "/></g></g></g><g fill="#ffffff" fill-opacity="1"><g transform="translate(152.273005, 291.463821)"><g><path d="M 13.21875 -11.8125 C 13.21875 -11.28125 13.140625 -10.769531 12.984375 -10.28125 C 12.835938 -9.800781 12.628906 -9.359375 12.359375 -8.953125 C 12.097656 -8.554688 11.773438 -8.203125 11.390625 -7.890625 C 11.015625 -7.578125 10.601562 -7.328125 10.15625 -7.140625 L 15.734375 0 L 11.53125 0 L 6.34375 -6.78125 L 4.71875 -6.78125 L 4.71875 0 L 1.109375 0 L 1.109375 -16.828125 L 8.375 -16.828125 C 9.039062 -16.828125 9.671875 -16.695312 10.265625 -16.4375 C 10.859375 -16.175781 11.367188 -15.816406 11.796875 -15.359375 C 12.234375 -14.910156 12.578125 -14.378906 12.828125 -13.765625 C 13.085938 -13.160156 13.21875 -12.507812 13.21875 -11.8125 Z M 7.921875 -10.0625 C 8.378906 -10.0625 8.773438 -10.226562 9.109375 -10.5625 C 9.441406 -10.90625 9.609375 -11.320312 9.609375 -11.8125 C 9.609375 -12.289062 9.441406 -12.695312 9.109375 -13.03125 C 8.773438 -13.375 8.378906 -13.546875 7.921875 -13.546875 L 4.71875 -13.546875 L 4.71875 -10.0625 Z M 7.921875 -10.0625 "/></g></g></g><g fill="#ffffff" fill-opacity="1"><g transform="translate(171.825231, 291.463821)"><g><path d="M 8.375 -16.828125 C 9.039062 -16.828125 9.664062 -16.695312 10.25 -16.4375 C 10.832031 -16.175781 11.34375 -15.816406 11.78125 -15.359375 C 12.21875 -14.910156 12.5625 -14.378906 12.8125 -13.765625 C 13.070312 -13.160156 13.203125 -12.507812 13.203125 -11.8125 C 13.203125 -11.125 13.070312 -10.472656 12.8125 -9.859375 C 12.5625 -9.253906 12.21875 -8.722656 11.78125 -8.265625 C 11.34375 -7.804688 10.832031 -7.441406 10.25 -7.171875 C 9.664062 -6.910156 9.039062 -6.78125 8.375 -6.78125 L 4.703125 -6.78125 L 4.703125 0 L 1.109375 0 L 1.109375 -16.828125 Z M 7.90625 -10.0625 C 8.363281 -10.0625 8.757812 -10.226562 9.09375 -10.5625 C 9.4375 -10.90625 9.609375 -11.320312 9.609375 -11.8125 C 9.609375 -12.289062 9.4375 -12.695312 9.09375 -13.03125 C 8.757812 -13.375 8.363281 -13.546875 7.90625 -13.546875 L 4.703125 -13.546875 L 4.703125 -10.0625 Z M 7.90625 -10.0625 "/></g></g></g><g fill="#ffffff" fill-opacity="1"><g transform="translate(188.553887, 291.463821)"><g><path d="M 11.46875 -16.828125 L 18.484375 0 L 14.59375 0 L 13.078125 -3.609375 L 5.9375 -3.609375 L 4.4375 0 L 0.515625 0 L 7.546875 -16.828125 Z M 11.71875 -6.890625 L 9.515625 -12.171875 L 7.3125 -6.890625 Z M 11.71875 -6.890625 "/></g></g></g><g fill="#ffffff" fill-opacity="1"><g transform="translate(210.811043, 291.463821)"><g><path d="M 4.71875 -3.25 L 11.625 -3.25 L 11.625 0 L 1.109375 0 L 1.109375 -16.828125 L 4.71875 -16.828125 Z M 4.71875 -3.25 "/></g></g></g><g fill="#ffffff" fill-opacity="1"><g transform="translate(225.92623, 291.463821)"><g/></g></g><g fill="#ffffff" fill-opacity="1"><g transform="translate(235.702734, 291.463821)"><g><path d="M 8.453125 -9.140625 L 16.5625 0 L 12.125 0 L 6.171875 -6.859375 L 4.71875 -5.390625 L 4.71875 0 L 1.109375 0 L 1.109375 -16.828125 L 4.71875 -16.828125 L 4.71875 -10.015625 L 11.484375 -16.828125 L 16.09375 -16.828125 Z M 8.453125 -9.140625 "/></g></g></g><g fill="#ffffff" fill-opacity="1"><g transform="translate(255.848145, 291.463821)"><g><path d="M 11.46875 -16.828125 L 18.484375 0 L 14.59375 0 L 13.078125 -3.609375 L 5.9375 -3.609375 L 4.4375 0 L 0.515625 0 L 7.546875 -16.828125 Z M 11.71875 -6.890625 L 9.515625 -12.171875 L 7.3125 -6.890625 Z M 11.71875 -6.890625 "/></g></g></g><g fill="#ffffff" fill-opacity="1"><g transform="translate(278.105302, 291.463821)"><g><path d="M 10.640625 -16.828125 L 14.21875 -16.828125 L 14.21875 -6.078125 C 14.21875 -5.234375 14.039062 -4.421875 13.6875 -3.640625 C 13.34375 -2.867188 12.867188 -2.191406 12.265625 -1.609375 C 11.671875 -1.023438 10.972656 -0.554688 10.171875 -0.203125 C 9.367188 0.140625 8.507812 0.3125 7.59375 0.3125 C 6.6875 0.3125 5.832031 0.140625 5.03125 -0.203125 C 4.226562 -0.554688 3.53125 -1.023438 2.9375 -1.609375 C 2.34375 -2.191406 1.867188 -2.867188 1.515625 -3.640625 C 1.171875 -4.421875 1 -5.234375 1 -6.078125 L 1 -16.828125 L 4.578125 -16.828125 L 4.578125 -6.78125 C 4.578125 -6.3125 4.65625 -5.863281 4.8125 -5.4375 C 4.976562 -5.019531 5.191406 -4.648438 5.453125 -4.328125 C 5.722656 -4.003906 6.046875 -3.75 6.421875 -3.5625 C 6.796875 -3.375 7.1875 -3.28125 7.59375 -3.28125 C 8.019531 -3.28125 8.414062 -3.375 8.78125 -3.5625 C 9.144531 -3.75 9.460938 -4.003906 9.734375 -4.328125 C 10.015625 -4.648438 10.234375 -5.019531 10.390625 -5.4375 C 10.554688 -5.863281 10.640625 -6.3125 10.640625 -6.78125 Z M 10.640625 -16.828125 "/></g></g></g><g fill="#ffffff" fill-opacity="1"><g transform="translate(296.542336, 291.463821)"><g><path d="M 13.21875 -11.8125 C 13.21875 -11.28125 13.140625 -10.769531 12.984375 -10.28125 C 12.835938 -9.800781 12.628906 -9.359375 12.359375 -8.953125 C 12.097656 -8.554688 11.773438 -8.203125 11.390625 -7.890625 C 11.015625 -7.578125 10.601562 -7.328125 10.15625 -7.140625 L 15.734375 0 L 11.53125 0 L 6.34375 -6.78125 L 4.71875 -6.78125 L 4.71875 0 L 1.109375 0 L 1.109375 -16.828125 L 8.375 -16.828125 C 9.039062 -16.828125 9.671875 -16.695312 10.265625 -16.4375 C 10.859375 -16.175781 11.367188 -15.816406 11.796875 -15.359375 C 12.234375 -14.910156 12.578125 -14.378906 12.828125 -13.765625 C 13.085938 -13.160156 13.21875 -12.507812 13.21875 -11.8125 Z M 7.921875 -10.0625 C 8.378906 -10.0625 8.773438 -10.226562 9.109375 -10.5625 C 9.441406 -10.90625 9.609375 -11.320312 9.609375 -11.8125 C 9.609375 -12.289062 9.441406 -12.695312 9.109375 -13.03125 C 8.773438 -13.375 8.378906 -13.546875 7.921875 -13.546875 L 4.71875 -13.546875 L 4.71875 -10.0625 Z M 7.921875 -10.0625 "/></g></g></g><g fill="#373737" fill-opacity="1"><g transform="translate(160.264891, 308.794025)"><g><path d="M 9.765625 -8.40625 L 11.15625 -8.40625 L 8.640625 0 L 7.421875 0 L 5.859375 -5.234375 L 5.65625 -6.171875 L 5.4375 -5.1875 L 3.890625 0 L 2.671875 0 L 0.140625 -8.40625 L 1.5 -8.40625 L 3.234375 -2 L 5.1875 -8.40625 L 6.125 -8.40625 L 8.0625 -2.0625 Z M 9.765625 -8.40625 "/></g></g></g><g fill="#373737" fill-opacity="1"><g transform="translate(178.088618, 308.794025)"><g><path d="M 5.796875 -8.40625 L 5.796875 -7.296875 L 1.890625 -7.296875 L 1.890625 -5 L 5.375 -5 L 5.375 -3.859375 L 1.890625 -3.859375 L 1.890625 -1.15625 L 5.796875 -1.15625 L 5.796875 0 L 0.671875 0 L 0.671875 -8.40625 Z M 5.796875 -8.40625 "/></g></g></g><g fill="#373737" fill-opacity="1"><g transform="translate(191.070727, 308.794025)"><g><path d="M 6.625 -2.34375 C 6.625 -2.019531 6.5625 -1.71875 6.4375 -1.4375 C 6.3125 -1.15625 6.140625 -0.90625 5.921875 -0.6875 C 5.710938 -0.476562 5.460938 -0.3125 5.171875 -0.1875 C 4.890625 -0.0625 4.582031 0 4.25 0 L 0.671875 0 L 0.671875 -8.40625 L 3.953125 -8.40625 C 4.234375 -8.40625 4.5 -8.347656 4.75 -8.234375 C 5.007812 -8.128906 5.234375 -7.976562 5.421875 -7.78125 C 5.609375 -7.59375 5.753906 -7.367188 5.859375 -7.109375 C 5.972656 -6.859375 6.03125 -6.585938 6.03125 -6.296875 C 6.03125 -5.929688 5.972656 -5.597656 5.859375 -5.296875 C 5.742188 -5.003906 5.550781 -4.753906 5.28125 -4.546875 C 5.726562 -4.390625 6.0625 -4.109375 6.28125 -3.703125 C 6.507812 -3.304688 6.625 -2.851562 6.625 -2.34375 Z M 1.890625 -5 C 2.210938 -5 2.507812 -5 2.78125 -5 L 3.96875 -5 C 4.257812 -5 4.507812 -5.109375 4.71875 -5.328125 C 4.925781 -5.554688 5.03125 -5.828125 5.03125 -6.140625 C 5.03125 -6.460938 4.925781 -6.734375 4.71875 -6.953125 C 4.507812 -7.179688 4.257812 -7.296875 3.96875 -7.296875 L 1.890625 -7.296875 Z M 1.890625 -1.15625 C 1.953125 -1.144531 2.078125 -1.140625 2.265625 -1.140625 L 4.25 -1.140625 C 4.414062 -1.140625 4.570312 -1.175781 4.71875 -1.25 C 4.875 -1.320312 5.003906 -1.414062 5.109375 -1.53125 C 5.222656 -1.65625 5.3125 -1.800781 5.375 -1.96875 C 5.4375 -2.132812 5.46875 -2.3125 5.46875 -2.5 C 5.46875 -2.6875 5.4375 -2.859375 5.375 -3.015625 C 5.3125 -3.179688 5.222656 -3.328125 5.109375 -3.453125 C 5.003906 -3.578125 4.875 -3.675781 4.71875 -3.75 C 4.570312 -3.820312 4.414062 -3.859375 4.25 -3.859375 L 1.890625 -3.859375 Z M 1.890625 -1.15625 "/></g></g></g><g fill="#373737" fill-opacity="1"><g transform="translate(204.658047, 308.794025)"><g/></g></g><g fill="#373737" fill-opacity="1"><g transform="translate(214.222548, 308.794025)"><g><path d="M 0.71875 0 L 0.71875 -8.40625 L 3.703125 -8.40625 C 4.304688 -8.40625 4.84375 -8.296875 5.3125 -8.078125 C 5.78125 -7.859375 6.171875 -7.554688 6.484375 -7.171875 C 6.796875 -6.796875 7.03125 -6.347656 7.1875 -5.828125 C 7.351562 -5.316406 7.4375 -4.773438 7.4375 -4.203125 C 7.4375 -3.617188 7.347656 -3.070312 7.171875 -2.5625 C 7.003906 -2.050781 6.769531 -1.601562 6.46875 -1.21875 C 6.175781 -0.84375 5.820312 -0.546875 5.40625 -0.328125 C 5 -0.109375 4.554688 0 4.078125 0 Z M 3.65625 -1.15625 C 4.101562 -1.15625 4.484375 -1.238281 4.796875 -1.40625 C 5.117188 -1.570312 5.378906 -1.789062 5.578125 -2.0625 C 5.785156 -2.34375 5.9375 -2.664062 6.03125 -3.03125 C 6.125 -3.40625 6.171875 -3.796875 6.171875 -4.203125 C 6.171875 -4.597656 6.125 -4.984375 6.03125 -5.359375 C 5.9375 -5.742188 5.789062 -6.078125 5.59375 -6.359375 C 5.394531 -6.640625 5.132812 -6.863281 4.8125 -7.03125 C 4.488281 -7.207031 4.101562 -7.296875 3.65625 -7.296875 L 1.953125 -7.296875 L 1.953125 -1.15625 Z M 3.65625 -1.15625 "/></g></g></g><g fill="#373737" fill-opacity="1"><g transform="translate(228.735468, 308.794025)"><g><path d="M 5.796875 -8.40625 L 5.796875 -7.296875 L 1.890625 -7.296875 L 1.890625 -5 L 5.375 -5 L 5.375 -3.859375 L 1.890625 -3.859375 L 1.890625 -1.15625 L 5.796875 -1.15625 L 5.796875 0 L 0.671875 0 L 0.671875 -8.40625 Z M 5.796875 -8.40625 "/></g></g></g><g fill="#373737" fill-opacity="1"><g transform="translate(241.717577, 308.794025)"><g><path d="M 3.65625 0 L 0.171875 -8.40625 L 1.5 -8.40625 L 4.34375 -1.59375 L 7.171875 -8.40625 L 8.515625 -8.40625 L 5.03125 0 Z M 3.65625 0 "/></g></g></g></svg>